<svg width="24" height="24" viewBox="0 0 24 24" role="img" xmlns="http://www.w3.org/2000/svg">
  <title>Route Scout</title>
  <path fill="currentColor" d="M12 2a10 10 0 1 0 0 20 10 10 0 0 0 0-20Zm0 2a8 8 0 0 1 7.75 6.02l-4.3 1.66a4 4 0 0 0-2.45-1.6V5.06A8 8 0 0 1 12 4Zm-1 1.06v3.02a4 4 0 0 0-2.45 1.6l-4.3-1.66A8 8 0 0 1 11 5.06ZM4 12a8 8 0 0 1 .09-1.18l4.3 1.66a4 4 0 0 0 .93 2.86l-2.66 3.66A7.98 7.98 0 0 1 4 12Zm8 8a7.96 7.96 0 0 1-3.85-.99l2.66-3.66a4 4 0 0 0 2.38 0l2.66 3.66A7.96 7.96 0 0 1 12 20Zm5.34-2.99-2.66-3.66a4 4 0 0 0 .93-2.86l4.3-1.66A8 8 0 0 1 17.34 17.01ZM12 14a2 2 0 1 1 0-4 2 2 0 0 1 0 4Z"/>
</svg>
